<svg xmlns="http://www.w3.org/2000/svg" viewBox="0 0 48 48" fill="none">
  <!-- Corps ampoule IoT -->
  <path d="M18 30 C18 30 14 24 14 18 C14 12.5 18.5 8 24 8 C29.5 8 34 12.5 34 18 C34 24 30 30 30 30 Z"
        fill="#1e293b" stroke="#64748b" stroke-width="1.5"/>
  <!-- Lumière interne -->
  <path d="M20 28 C20 28 17 23 17 18 C17 14 20 11 24 11 C28 11 31 14 31 18 C31 23 28 28 28 28 Z"
        fill="#f59e0b" opacity="0.15"/>
  <!-- Filament -->
  <path d="M21 20 L24 16 L27 20" stroke="#f59e0b" stroke-width="1.5" fill="none" stroke-linecap="round" opacity="0.6"/>
  <!-- Culot -->
  <rect x="19" y="30" width="10" height="3" rx="1" fill="#475569"/>
  <rect x="20" y="33" width="8" height="2" rx="1" fill="#475569"/>
  <rect x="21" y="35" width="6" height="2" rx="1" fill="#475569"/>
  <!-- Signal WiFi petit -->
  <g stroke="#38bdf8" stroke-width="1" stroke-linecap="round" fill="none" opacity="0.7">
    <circle cx="36" cy="12" r="1" fill="#38bdf8"/>
    <path d="M33 10 Q36 7 39 10"/>
    <path d="M31 8 Q36 4 41 8"/>
  </g>
</svg>
